<svg xmlns="http://www.w3.org/2000/svg" xmlns:xlink="http://www.w3.org/1999/xlink" width="46.091" height="46.091" viewBox="0 0 46.091 46.091"><defs><style>.a{fill:url(#a);}.b{fill:url(#b);}.c{fill:#bc2f9e;}</style><linearGradient id="a" x1="0.097" y1="0.92" x2="0.246" y2="-0.115" gradientUnits="objectBoundingBox"><stop offset="0" stop-color="#fdd77a"/><stop offset="0.189" stop-color="#f66f2e"/><stop offset="0.424" stop-color="#d12f83"/><stop offset="0.652" stop-color="#a335b4"/><stop offset="1" stop-color="#505dce"/></linearGradient><linearGradient id="b" x1="-0.189" y1="1.692" x2="1.465" y2="-0.796" gradientUnits="objectBoundingBox"><stop offset="0" stop-color="#fdd77a"/><stop offset="0.3" stop-color="#f66f2e"/><stop offset="0.515" stop-color="#d12f83"/><stop offset="0.782" stop-color="#a335b4"/><stop offset="1" stop-color="#505dce"/></linearGradient></defs><g transform="translate(0 13.734) rotate(-23)"><path class="a" d="M582.257,244.808H568.051a10.482,10.482,0,0,0-10.472,10.472v14.207a10.484,10.484,0,0,0,10.472,10.472h14.206a10.486,10.486,0,0,0,10.472-10.472V255.28A10.484,10.484,0,0,0,582.257,244.808Zm6.936,24.679a6.936,6.936,0,0,1-6.936,6.936H568.051a6.936,6.936,0,0,1-6.936-6.936V255.28a6.935,6.935,0,0,1,6.936-6.936h14.206a6.935,6.935,0,0,1,6.936,6.936Z" transform="translate(-557.579 -244.808)"/><path class="b" d="M572.7,250.835a9.091,9.091,0,1,0,9.091,9.091A9.09,9.09,0,0,0,572.7,250.835Zm0,14.64a5.555,5.555,0,1,1,5.555-5.555A5.555,5.555,0,0,1,572.7,265.475Z" transform="translate(-555.122 -242.351)"/><path class="c" d="M577.165,249.336a2.178,2.178,0,1,0,2.178,2.178A2.176,2.176,0,0,0,577.165,249.336Z" transform="translate(-550.482 -242.962)"/></g></svg>