<svg xmlns="http://www.w3.org/2000/svg" width="332.074" height="226.736" viewBox="0 0 332.074 226.736"><defs><style>.a,.c{fill:#ff6e4e;}.a{opacity:0.6;}.b,.c{stroke:none;}</style></defs><g class="a" transform="translate(3635 -13503)"><path class="b" d="M -3361.426513671875 13726.736328125 C -3378.3330078125 13726.736328125 -3395.2685546875 13725.244140625 -3411.762451171875 13722.30078125 C -3427.84619140625 13719.427734375 -3443.75 13715.1318359375 -3459.03173828125 13709.5302734375 C -3474.034423828125 13704.0263671875 -3488.630859375 13697.19140625 -3502.4150390625 13689.2158203125 C -3516.037353515625 13681.3388671875 -3529.047119140625 13672.23828125 -3541.083984375 13662.166015625 C -3553.075439453125 13652.1298828125 -3564.22021484375 13641.029296875 -3574.208984375 13629.1728515625 C -3584.25830078125 13617.2421875 -3593.25830078125 13604.4130859375 -3600.95947265625 13591.0400390625 C -3608.761474609375 13577.49609375 -3615.33837890625 13563.20703125 -3620.508056640625 13548.5693359375 C -3625.387939453125 13534.75 -3629.074951171875 13520.4462890625 -3631.4833984375 13506 L -3305.92626953125 13506 L -3305.92626953125 13721.328125 C -3306.043701171875 13721.3505859375 -3306.160888671875 13721.3740234375 -3306.27783203125 13721.396484375 C -3324.312255859375 13724.9404296875 -3342.8662109375 13726.736328125 -3361.426513671875 13726.736328125 Z"/><path class="c" d="M -3361.426513671875 13723.736328125 C -3343.769287109375 13723.736328125 -3326.11962890625 13722.09375 -3308.92626953125 13718.8515625 L -3308.92626953125 13509 L -3627.916259765625 13509 C -3625.541748046875 13522.0859375 -3622.107421875 13535.0302734375 -3617.679443359375 13547.5703125 C -3612.570556640625 13562.03515625 -3606.070556640625 13576.1572265625 -3598.359619140625 13589.54296875 C -3590.746826171875 13602.7626953125 -3581.849365234375 13615.4453125 -3571.914794921875 13627.2392578125 C -3562.037841796875 13638.9638671875 -3551.016845703125 13649.9404296875 -3539.158935546875 13659.865234375 C -3527.25390625 13669.8271484375 -3514.386474609375 13678.828125 -3500.91259765625 13686.619140625 C -3487.278076171875 13694.5078125 -3472.83935546875 13701.2685546875 -3457.999267578125 13706.712890625 C -3442.881103515625 13712.2548828125 -3427.147216796875 13716.505859375 -3411.235595703125 13719.34765625 C -3394.9150390625 13722.259765625 -3378.15673828125 13723.736328125 -3361.426513671875 13723.736328125 M -3361.426513671875 13729.736328125 C -3378.507568359375 13729.736328125 -3395.620361328125 13728.228515625 -3412.28955078125 13725.25390625 C -3428.5458984375 13722.3505859375 -3444.61962890625 13718.0078125 -3460.064208984375 13712.3466796875 C -3475.23193359375 13706.7822265625 -3489.986328125 13699.873046875 -3503.91748046875 13691.8125 C -3517.691162109375 13683.84765625 -3530.843505859375 13674.646484375 -3543.00927734375 13664.466796875 C -3555.134521484375 13654.318359375 -3566.403564453125 13643.09375 -3576.50341796875 13631.10546875 C -3586.66748046875 13619.0390625 -3595.770263671875 13606.0625 -3603.55908203125 13592.537109375 C -3611.4521484375 13578.8349609375 -3618.1064453125 13564.3779296875 -3623.3369140625 13549.568359375 C -3628.667724609375 13534.4716796875 -3632.591796875 13518.8037109375 -3635 13503 L -3302.92626953125 13503 L -3302.92626953125 13723.78125 C -3303.931396484375 13723.9892578125 -3304.8388671875 13724.171875 -3305.700927734375 13724.3408203125 C -3323.923095703125 13727.9208984375 -3342.671875 13729.736328125 -3361.426513671875 13729.736328125 Z"/></g></svg>